<svg width="32" height="32" viewBox="0 0 32 32" fill="none" xmlns="http://www.w3.org/2000/svg">
<path d="M17.333 11.3333H11.9997C9.42234 11.3333 7.33301 9.244 7.33301 6.66667C7.33301 4.08933 9.42234 2 11.9997 2H17.333V11.3333Z" fill="#E64A19"/>
<path d="M16.6663 20.6666H11.9997C9.42234 20.6666 7.33301 18.5773 7.33301 15.9999C7.33301 13.4226 9.42234 11.3333 11.9997 11.3333H16.6663V20.6666Z" fill="#7C4DFF"/>
<path d="M11.9997 30.0001C9.42234 30.0001 7.33301 27.9107 7.33301 25.3334C7.33301 22.7561 9.42234 20.6667 11.9997 20.6667H16.6663V25.3334C16.6663 27.9107 14.577 30.0001 11.9997 30.0001Z" fill="#66BB6A"/>
<path d="M21.3337 11.3333H16.667V2H21.3337C23.911 2 26.0003 4.08933 26.0003 6.66667C26.0003 9.244 23.911 11.3333 21.3337 11.3333Z" fill="#FF7043"/>
<path d="M21.3337 20.6666C23.911 20.6666 26.0003 18.5772 26.0003 15.9999C26.0003 13.4226 23.911 11.3333 21.3337 11.3333C18.7563 11.3333 16.667 13.4226 16.667 15.9999C16.667 18.5772 18.7563 20.6666 21.3337 20.6666Z" fill="#29B6F6"/>
</svg>
