<svg width="32" height="32" viewBox="0 0 32 32" fill="none" xmlns="http://www.w3.org/2000/svg">
<mask id="mask0_66_1334" style="mask-type:alpha" maskUnits="userSpaceOnUse" x="3" y="3" width="26" height="27">
<path d="M28.5571 8.4033C28.4099 8.2689 28.2243 8.1921 28.0259 8.1921C28.0131 8.1921 27.9939 8.1985 27.9747 8.1985L8.8643 9.4273C8.4611 9.4529 8.1411 9.7985 8.1411 10.2017V28.6017C8.1411 28.8193 8.2307 29.0177 8.3843 29.1649C8.5443 29.3121 8.7491 29.3889 8.9667 29.3761L28.0771 28.1409C28.4867 28.1153 28.8003 27.7761 28.8003 27.3665V8.9729C28.8003 8.7553 28.7171 8.5505 28.5571 8.4033ZM24.3907 13.3889C24.0067 13.5105 23.8851 13.5169 23.8851 13.5169V24.5505C23.2323 24.9025 22.6947 25.0689 22.1315 25.0689C21.4467 25.0689 21.0563 24.9153 20.5315 24.1089C19.4179 22.3873 15.7891 16.5505 15.7891 16.5505V23.8785L17.2163 24.1793C17.2163 24.1793 17.1779 25.0113 15.9299 25.1073C14.8355 25.1905 12.4483 25.3121 12.4483 25.3121C12.4483 25.0113 12.5123 24.5953 12.9859 24.4737C13.2099 24.4161 13.8819 24.2369 13.8819 24.2369V14.3489H12.4483C12.4483 13.6897 12.6403 13.1777 13.3315 13.1265L17.0371 12.9153L21.9843 20.5441V13.7537L20.5507 13.6321C20.5507 13.0369 21.1267 12.6721 21.6195 12.6209L24.8451 12.4417C24.8451 12.8577 24.8259 13.2481 24.3907 13.3889ZM3.1875 5.4657L6.8611 9.1393V28.0449L3.5843 24.1025C3.3219 23.7313 3.1875 23.3025 3.1875 22.8481V5.4657ZM27.3411 6.9825L8.7427 8.1537C8.1091 8.1985 7.4947 7.9617 7.0467 7.5201L3.9939 4.4609L21.3955 3.2513C21.9139 3.2065 22.4323 3.3601 22.8547 3.6737L27.3411 6.9825Z" fill="black"/>
</mask>
<g mask="url(#mask0_66_1334)">
<rect width="32" height="32" fill="white"/>
</g>
</svg>
