<svg width="32" height="32" viewBox="0 0 32 32" fill="none" xmlns="http://www.w3.org/2000/svg">
<g clip-path="url(#clip0_66_1364)">
<path d="M15.9996 30.4763C23.9946 30.4763 30.4758 23.9951 30.4758 16.0001C30.4758 8.00514 23.9946 1.52393 15.9996 1.52393C8.00465 1.52393 1.52344 8.00514 1.52344 16.0001C1.52344 23.9951 8.00465 30.4763 15.9996 30.4763Z" stroke="white" stroke-width="3.04762"/>
<path fill-rule="evenodd" clip-rule="evenodd" d="M11.9 23.6191H8.76172L11.6646 7.61914H18.2284C21.0002 7.61914 22.857 9.87933 22.857 12.1906C22.857 14.3239 21.7324 15.6698 20.6341 16.4066C19.9804 16.8382 19.2482 17.1685 18.4375 17.397L21.1834 23.6191H17.6531L15.3255 17.778H12.972L11.9 23.6191ZM14.2794 10.5399L13.4947 14.8572H17.1301C18.4901 14.8572 19.6928 13.8161 19.6928 12.5715C19.6928 11.5555 18.8821 10.5399 17.7053 10.5399H14.2794Z" fill="white"/>
</g>
<defs>
<clipPath id="clip0_66_1364">
<rect width="32" height="32" fill="white"/>
</clipPath>
</defs>
</svg>
