<svg width="32" height="32" viewBox="0 0 32 32" fill="none" xmlns="http://www.w3.org/2000/svg">
<path d="M29.3338 7.4066V24.5933C29.3338 25.4399 28.8071 26.1933 28.0138 26.4733L22.1338 29.2333L22.6671 21.9999V9.99993L22.1338 2.7666L28.0138 5.5266C28.8071 5.8066 29.3338 6.55993 29.3338 7.4066Z" fill="#29B6F6"/>
<path d="M5.99962 22.5972L22.6663 9.9999V3.56857C22.6663 2.7699 21.6783 2.39657 21.1496 2.99523L3.10495 19.4926C2.50495 20.0459 2.53895 21.0039 3.17629 21.5139C3.17629 21.5139 4.05895 22.3352 4.37829 22.5632C4.86895 22.9132 5.51362 22.9532 5.99962 22.5972Z" fill="#0277BD"/>
<path d="M5.99962 9.40277L22.6663 22.0001V28.4314C22.6663 29.2301 21.6783 29.6034 21.1496 29.0048L3.10495 12.5074C2.50495 11.9541 2.53895 10.9961 3.17629 10.4861C3.17629 10.4861 4.05895 9.66477 4.37829 9.43677C4.86895 9.08677 5.51362 9.04677 5.99962 9.40277Z" fill="#0288D1"/>
</svg>
